<?xml version="1.0" encoding="utf-8"?>
<!-- Generator: Adobe Illustrator 24.1.3, SVG Export Plug-In . SVG Version: 6.00 Build 0)  -->
<svg version="1.1" id="Layer_1" xmlns="http://www.w3.org/2000/svg" xmlns:xlink="http://www.w3.org/1999/xlink" x="0px" y="0px"
	 viewBox="0 0 202.1 49" style="enable-background:new 0 0 202.1 49;" xml:space="preserve">
<style type="text/css">
	.st0{fill:#5FC8DA;}
	.st1{fill:#A7CF3D;}
	.st2{fill:none;stroke:#BFBFBF;stroke-width:0.2715;stroke-miterlimit:6.0681;}
</style>
<path d="M191.5,23.8c0.3-2.1,1.6-3.3,3.6-3.3c2.2,0,3.4,1.2,3.4,3.3H191.5z M202.1,26.4v-1c0-4.8-2.6-7.6-6.6-7.6
	c-4.1,0-7.6,2.9-7.6,7.2s3.3,7.2,7.6,7.2c2.2,0,4.3-0.9,5.9-2.8l-2.4-1.9c-0.9,1-2.1,1.9-3.8,1.9c-1.9,0-3.4-1.2-3.8-3.3h10.7V26.4z
	 M179.8,32.3h3.4V21.4h3.3v-2.9h-3.3v-2.6c0-1.6,0.3-2.9,2.2-2.9c0.5,0,1,0,1.4,0.2l0.2-2.9c-0.7-0.2-1.4-0.2-2.2-0.2
	c-4.3,0-5.2,2.6-5.2,6.4v1.9h-2.9v2.9h2.9v11H179.8z M170.7,13.7c0,1,0.9,2.1,2.2,2.1c1.4,0,2.2-0.9,2.2-2.1s-1-2.1-2.2-2.1
	C171.7,11.6,170.7,12.5,170.7,13.7 M171.2,32.3h3.4V18.5h-3.4V32.3z M156.4,32.3h12.4V29h-8.6V11.8h-3.6v20.5H156.4z M142.9,10.4
	h-3.4v21.9h3.4v-7.6c0-1.9,0.9-3.4,3.1-3.4c2.4,0,2.6,2.6,2.6,4.1v7.1h3.4v-8.8c0-2.8-1.4-5.5-5-5.5c-2.1,0-3.4,1.2-4.1,2.2l0,0
	V10.4z M137.4,20c-1.4-1.6-3.3-2.1-5-2.1c-4.1,0-7.6,2.9-7.6,7.2s3.3,7.2,7.6,7.2c1.2,0,3.6-0.5,5-1.9l-2.2-2.4
	c-0.7,0.9-1.7,1.2-2.8,1.2c-2.6,0-4.1-2.1-4.1-4.1c0-2.2,1.6-4.1,4.1-4.1c0.9,0,1.9,0.5,2.6,1.4L137.4,20z M109,32.3h3.4v-7.6
	c0-1.9,0.9-3.4,3.1-3.4c2.4,0,2.6,2.6,2.6,4.1v7.1h3.4v-8.8c0-2.8-1.4-5.5-5-5.5c-2.2,0-3.6,1.2-4.3,2.6l0,0v-2.2H109
	C109,18.5,109,32.3,109,32.3z M105.2,18.3h-3.4v7.6c0,1.9-0.9,3.4-3.1,3.4c-2.4,0-2.6-2.6-2.6-4.1v-7.1h-3.4v8.8
	c0,2.8,1.4,5.5,5,5.5c2.2,0,3.6-1.2,4.3-2.6l0,0v2.2h3.3V18.3z M85.3,26.8c0,1.9-1.2,3.1-3.4,3.1c-1.2,0-2.4-0.5-2.4-1.9
	c0-2.1,3.3-2.1,5.2-2.1h0.7V26.8z M85.5,32.3h3.1v-8.1c0-1.9,0-6.2-5.9-6.2c-2.2,0-4.3,0.7-5.9,2.2l1.9,1.9c0.9-0.9,2.2-1.4,3.6-1.4
	c1.9,0,3.1,0.9,3.1,2.6v0.3h-0.9c-3.4,0-8.8,0.3-8.8,4.8c0,2.8,2.4,4.1,5,4.1c1.9,0,3.4-0.7,4.5-2.2l0,0v1.9H85.5z M62.2,32.3h12.4
	V29H66V11.8h-3.6v20.5H62.2z"/>
<path d="M199.1,48.8h1.4v-1.4h-1.4V48.8z M195.2,42.6c-0.3-0.2-0.9-0.2-1.4-0.2c-1.9,0-3.3,1.4-3.3,3.3c0,1.7,1.4,3.3,3.3,3.3
	c0.3,0,1,0,1.4-0.3l-0.2-1c-0.3,0.2-0.9,0.3-1.2,0.3c-1.6,0-2.1-1.2-2.1-2.4c0-1.2,0.7-2.4,2.1-2.4c0.3,0,0.9,0.2,1.2,0.3
	L195.2,42.6z M181.2,48.8h1.2v-2.9c0-1.6,0.5-2.6,1.9-2.6c1,0,1.4,0.9,1.4,2.2v3.3h1.2V45c0-1.7-0.7-2.8-2.4-2.8
	c-0.9,0-1.7,0.3-2.1,1.2l0,0v-1h-1.2V48.8z M175.3,48.8h1.2v-8.6h-1.2V48.8z M163.6,48.8h1.2v-9.3h-1.2V48.8z M157.7,46.2
	c0,0.9-0.7,1.7-1.7,1.7c-0.5,0-1.2-0.3-1.2-1c0-1,1.6-1.2,2.2-1.2c0.2,0,0.5,0,0.7,0V46.2L157.7,46.2z M154.5,43.8
	c0.5-0.3,1.2-0.7,1.9-0.7c1.2,0,1.6,0.5,1.6,1.7c-0.5,0-0.9,0-1.2,0c-1.2,0-2.9,0.5-2.9,2.1c0,1.4,0.9,1.9,2.2,1.9
	c1,0,1.7-0.5,1.9-1l0,0v0.9h1c0-0.2,0-0.5,0-1.2v-2.6c0-1.7-0.7-2.6-2.6-2.6c-0.9,0-1.6,0.2-2.1,0.5L154.5,43.8z M144.1,48.8h1.2
	v-2.9c0-1.6,0.5-2.6,1.9-2.6c1,0,1.4,0.9,1.4,2.2v3.3h1.2V45c0-1.7-0.7-2.8-2.4-2.8c-0.9,0-1.7,0.3-2.1,1.2l0,0v-1h-1.2V48.8z
	 M134.8,45.6c0-1.2,0.7-2.4,1.9-2.4s1.9,1.2,1.9,2.4c0,1.2-0.7,2.4-1.9,2.4S134.8,46.8,134.8,45.6 M133.6,45.6
	c0,1.7,1.4,3.3,3.3,3.3c1.9,0,3.3-1.6,3.3-3.3c0-1.9-1.2-3.3-3.3-3.3C135,42.3,133.6,43.7,133.6,45.6 M129.5,39.7h-1.4v1.4h1.4V39.7
	z M128.3,48.8h1.2v-6.4h-1.2V48.8z M124.3,42.4h-1.7v-1.9l-1.2,0.3v1.4H120v0.9h1.4v3.6c0,1.2,0.7,1.9,1.9,1.9c0.3,0,0.7-0.2,1-0.2
	v-1c-0.2,0.2-0.3,0.2-0.9,0.2s-1-0.3-1-1.2V43h1.7v-0.5H124.3z M115.3,46.2c0,0.9-0.7,1.7-1.7,1.7c-0.5,0-1.2-0.3-1.2-1
	c0-1,1.6-1.2,2.2-1.2c0.2,0,0.5,0,0.7,0L115.3,46.2L115.3,46.2z M111.9,43.8c0.5-0.3,1.2-0.7,1.9-0.7c1.2,0,1.6,0.5,1.6,1.7
	c-0.5,0-0.9,0-1.2,0c-1.2,0-2.9,0.5-2.9,2.1c0,1.4,1,1.9,2.2,1.9c1,0,1.7-0.5,1.9-1l0,0v0.9h1c0-0.2,0-0.5,0-1.2v-2.6
	c0-1.7-0.7-2.6-2.6-2.6c-0.9,0-1.6,0.2-2.1,0.5L111.9,43.8z M101.5,48.8h1.2v-2.9c0-1.6,0.5-2.6,1.9-2.6c1,0,1.4,0.9,1.4,2.2v3.3
	h1.2V45c0-1.7-0.7-2.8-2.4-2.8c-0.9,0-1.7,0.3-2.1,1.2l0,0v-1h-1.2C101.5,42.4,101.5,48.8,101.5,48.8z M94.3,48.8h1.2v-2.9
	c0-1.6,0.7-2.6,1.7-2.6c0.2,0,0.5,0,0.7,0.2v-1c-0.2,0-0.3,0-0.7,0c-0.7,0-1.4,0.5-1.7,1.2l0,0v-1h-1v6.2H94.3z M85.7,45
	c0-0.9,0.5-1.7,1.7-1.7c1,0,1.6,0.9,1.6,1.7H85.7z M89.8,47.3c-0.3,0.2-1.2,0.7-1.9,0.7c-1,0-2.1-0.9-2.1-2.1h4.5
	c0-2.1-0.7-3.6-2.8-3.6c-1.7,0-2.9,1.4-2.9,3.1c0,2.1,1,3.4,3.3,3.4c1,0,1.6-0.2,2.1-0.3v-1.2H89.8z M81,42.4h-1.7v-1.9l-1.2,0.3
	v1.4h-1.4v0.9h1.4v3.6c0,1.2,0.7,1.9,1.9,1.9c0.3,0,0.7-0.2,1-0.2v-1c-0.2,0.2-0.3,0.2-0.9,0.2s-1-0.3-1-1.2V43h1.7v-0.5H81z
	 M67.6,48.8h1.2v-2.9c0-1.6,0.5-2.6,1.9-2.6c1,0,1.4,0.9,1.4,2.2v3.3h1.2V45c0-1.7-0.7-2.8-2.4-2.8c-0.9,0-1.7,0.3-2.1,1.2l0,0v-1
	h-1.2C67.6,42.4,67.6,48.8,67.6,48.8z M61.9,48.8h1.2v-8.6h-1.2V48.8z"/>
<polygon class="st0" points="0,0 13.8,0 13.8,35.9 37.2,35.9 37.2,49 0,49 "/>
<rect x="19.8" class="st1" width="17.2" height="7.2"/>
<rect x="19.8" y="9.1" class="st1" width="17.2" height="20.9"/>
<line class="st2" x1="50" y1="0" x2="50" y2="49"/>
</svg>
