<?xml version="1.0" standalone="no"?>
<!DOCTYPE svg PUBLIC "-//W3C//DTD SVG 20010904//EN"
 "http://www.w3.org/TR/2001/REC-SVG-20010904/DTD/svg10.dtd">
<svg version="1.0" xmlns="http://www.w3.org/2000/svg"
 width="3232.000000pt" height="3232.000000pt" viewBox="0 0 3232.000000 3232.000000"
 preserveAspectRatio="xMidYMid meet">
<metadata>
Created by potrace 1.14, written by Peter Selinger 2001-2017
</metadata>
<g transform="translate(0.000000,3232.000000) scale(0.100000,-0.100000)"
fill="#000000" stroke="none">
<path d="M0 16160 l0 -3920 2975 0 2975 0 0 1048 0 1048 -1862 -1 c-1025 0
-1867 3 -1873 6 -7 5 -10 973 -9 2873 l1 2866 -1104 0 -1103 0 0 -3920z"/>
<path d="M3166 19510 c0 -313 3 -572 7 -576 11 -11 2737 -10 2739 1 0 6 2 265
3 578 l1 567 -1375 0 -1376 0 1 -570z"/>
<path d="M7975 16160 l0 -3920 21 0 21 0 0 3920 0 3920 -21 0 -21 0 0 -3920z"/>
<path d="M3172 18620 c-8 -6 -8 -3327 0 -3335 3 -3 62 -5 132 -5 69 1 134 1
144 1 9 0 64 0 122 0 58 0 112 1 120 0 11 0 1260 0 1355 0 6 0 51 0 100 -1 50
-1 117 -1 150 -1 33 1 169 0 302 -1 134 -2 243 -1 243 2 0 3 17 4 38 2 l38 -4
-1 1664 c-1 914 -3 1668 -3 1673 -2 10 -2727 15 -2740 5z"/>
<path d="M29487 18464 c-1 -1 -33 -4 -72 -8 -71 -6 -117 -13 -147 -22 -9 -3
-25 -6 -35 -8 -52 -11 -193 -79 -201 -98 -2 -4 -8 -8 -14 -8 -18 0 -98 -83
-139 -144 -40 -58 -111 -220 -102 -230 2 -2 0 -13 -5 -23 -5 -10 -12 -36 -16
-58 -3 -22 -8 -51 -10 -65 -14 -76 -18 -141 -21 -292 -1 -91 -6 -171 -9 -177
-4 -6 -3 -11 2 -11 6 0 7 -14 2 -35 -4 -19 -5 -35 -1 -35 7 0 6 -94 -2 -106
-3 -5 -107 -9 -231 -9 -196 1 -226 -1 -227 -15 0 -8 -1 -112 -1 -230 l-1 -215
228 -2 c125 -1 230 -4 232 -7 5 -5 6 -38 4 -121 -1 -22 0 -65 2 -95 2 -30 0
-63 -5 -72 -5 -10 -5 -18 -1 -18 10 0 8 -203 -1 -219 -4 -6 -4 -11 1 -11 9 0
9 -280 0 -304 -4 -9 -3 -16 1 -16 8 0 7 -202 -1 -225 -4 -8 -3 -15 1 -15 4 0
7 -45 7 -100 0 -55 -2 -100 -5 -100 -3 0 -4 -19 -3 -42 8 -107 8 -176 2 -205
-4 -18 -4 -33 0 -33 6 0 7 -134 0 -160 -3 -13 34 -15 287 -17 l292 -2 0 847
c0 466 1 858 1 872 l1 26 256 -1 c162 0 258 3 263 10 10 13 8 451 -2 461 -4 4
-7 2 -7 -4 0 -8 -7 -9 -22 -3 -13 5 -33 5 -45 0 -12 -4 -24 -5 -27 -1 -3 6
-71 8 -71 2 0 -1 -19 -2 -43 -3 -23 -1 -42 0 -42 3 0 7 -54 5 -66 -2 -5 -3
-18 -2 -29 2 -11 4 -30 4 -42 -1 -13 -5 -25 -4 -28 1 -4 7 -13 6 -25 0 -11 -6
-21 -6 -24 -1 -3 5 -15 7 -26 4 -24 -6 -22 -31 -22 257 0 214 5 313 18 370 3
14 6 31 6 38 1 6 5 12 10 12 4 0 8 6 8 14 0 43 75 126 139 154 38 16 48 19 96
26 17 2 35 5 40 6 6 1 12 2 15 1 3 -1 46 -3 96 -5 51 -2 102 -9 114 -16 34
-18 33 -22 45 155 10 144 15 207 19 252 4 51 4 50 -124 68 -47 7 -287 14 -293
9z"/>
<path d="M22310 16663 l0 -1753 271 2 271 3 3 665 c1 366 5 676 8 690 4 14 9
34 11 45 29 134 115 247 230 305 34 16 71 30 82 30 11 0 24 3 28 7 4 4 21 8
39 9 103 6 126 6 167 0 66 -10 142 -48 187 -93 39 -39 92 -121 98 -152 2 -9 4
-17 5 -18 2 -2 3 -6 5 -10 1 -5 4 -15 7 -23 10 -25 30 -133 33 -168 1 -18 5
-35 8 -38 3 -3 2 -17 -3 -30 -5 -13 -6 -24 -2 -24 4 0 7 -275 7 -611 0 -336 3
-613 8 -616 14 -8 147 -9 147 0 0 5 5 5 11 2 13 -9 284 -9 298 -1 5 4 12 3 15
-2 3 -5 18 -7 34 -4 l30 4 0 756 c1 791 -1 816 -44 975 -37 135 -123 282 -209
358 -58 52 -82 70 -97 75 -10 3 -18 10 -18 15 0 5 -4 9 -9 9 -5 0 -35 12 -67
27 -33 15 -62 28 -66 29 -5 1 -9 2 -10 4 -5 3 -44 12 -123 26 -22 4 -89 7
-150 7 -96 0 -132 -3 -204 -18 -42 -9 -191 -71 -201 -84 -3 -3 -25 -19 -50
-35 -47 -31 -125 -105 -176 -169 l-31 -38 -1 768 c0 422 -1 782 -1 798 l-1 31
-270 0 -270 0 0 -1753z"/>
<path d="M27580 18215 c-107 -23 -170 -66 -227 -152 -46 -70 -48 -76 -48 -178
0 -72 3 -86 34 -143 94 -173 299 -237 487 -152 88 41 157 135 168 231 1 14 5
30 8 35 9 17 -7 116 -24 147 -6 12 -10 24 -8 25 1 2 -11 23 -28 47 -78 111
-229 170 -362 140z"/>
<path d="M10008 18192 l-28 -3 0 -87 c-1 -98 -1 -3084 0 -3149 l0 -43 975 1
975 0 0 264 0 265 -102 1 c-93 0 -197 -1 -223 -2 -5 -1 -57 -1 -115 0 -58 0
-112 0 -120 0 -37 -1 -720 0 -760 1 -24 1 -47 4 -50 6 -3 3 -5 619 -5 1369 -1
750 -4 1367 -7 1371 -7 6 -488 12 -540 6z"/>
<path d="M25065 18192 c-20 -3 -21 -4 -20 -1640 l0 -1637 973 -2 c534 -2 973
1 973 5 4 28 3 506 -1 513 -5 7 -133 11 -260 8 -40 -1 -724 0 -785 2 -89 1
-158 1 -167 -1 -12 -2 -117 -2 -123 1 -3 1 -9 2 -14 3 -5 0 -12 4 -16 8 -10 9
-12 148 -3 148 4 0 5 6 2 14 -8 21 -10 106 -2 106 4 0 5 6 2 14 -8 21 -10 106
-2 106 4 0 5 7 2 15 -9 22 -10 225 -2 225 4 0 5 6 2 14 -8 21 -10 106 -2 106
4 0 5 6 2 14 -9 23 -10 106 -1 106 5 0 5 5 2 10 -6 10 -10 114 -5 135 1 6 2
12 0 15 -5 15 -4 80 2 80 4 0 5 6 2 14 -8 21 -10 106 -2 106 4 0 5 6 2 14 -8
21 -10 106 -2 106 4 0 5 7 2 15 -9 22 -10 225 -2 225 4 0 5 6 2 14 -8 21 -10
106 -2 106 4 0 5 6 2 14 -9 23 -10 106 -1 106 5 0 5 5 2 10 -6 10 -10 114 -5
135 1 6 2 12 0 15 -5 15 -4 80 2 80 4 0 5 6 2 14 -8 21 -10 106 -2 106 4 0 5
6 2 14 -8 21 -10 106 -2 106 4 0 5 7 2 15 -9 23 -10 225 -1 225 5 0 5 5 1 11
-4 7 -6 49 -6 95 1 80 0 84 -21 85 -95 2 -516 3 -532 1z"/>
<path d="M31108 17224 c-3 -2 -27 -7 -54 -10 -62 -6 -216 -47 -280 -75 -185
-80 -279 -143 -399 -264 -81 -81 -99 -102 -142 -170 -18 -27 -37 -55 -43 -62
-5 -7 -10 -17 -10 -22 0 -5 -9 -25 -19 -43 -37 -62 -93 -249 -95 -315 -1 -13
-4 -23 -7 -23 -9 0 -4 -325 5 -365 30 -130 39 -165 61 -219 14 -35 25 -67 25
-73 0 -6 7 -16 15 -23 8 -7 12 -16 9 -21 -3 -5 0 -9 5 -9 6 0 11 -5 11 -11 0
-5 21 -42 47 -82 46 -72 210 -247 231 -247 6 0 12 -4 14 -8 11 -28 272 -172
311 -172 9 0 18 -4 21 -9 3 -5 18 -11 33 -14 16 -3 38 -8 51 -11 12 -3 31 -8
43 -11 11 -2 28 -6 37 -9 9 -3 40 -8 67 -11 28 -4 61 -8 75 -10 36 -6 251 -6
280 0 14 3 45 8 70 11 25 3 77 15 115 26 39 10 75 21 80 22 72 20 232 107 321
174 116 87 227 201 210 217 -9 9 -154 124 -295 234 -18 14 -43 34 -54 44 -20
17 -22 16 -70 -30 -76 -74 -79 -77 -132 -115 -170 -121 -390 -169 -577 -124
-61 14 -147 48 -173 68 -5 4 -30 23 -55 41 -56 41 -129 130 -162 199 -39 79
-72 189 -60 197 5 3 391 6 857 5 l848 0 -6 165 c-3 91 -9 177 -12 191 -3 14
-8 41 -9 60 -6 66 -79 317 -96 330 -6 5 -22 38 -24 50 -1 3 -23 41 -50 85 -30
48 -87 116 -141 170 -140 139 -293 218 -505 260 -41 9 -365 16 -372 9z m257
-439 c66 -12 177 -69 230 -117 74 -68 125 -171 141 -288 8 -52 8 -61 5 -94 -1
-11 -96 -13 -557 -13 l-555 -1 2 32 c2 17 8 37 13 45 6 8 10 16 8 18 -8 8 13
73 44 138 69 143 196 241 359 279 62 14 238 15 310 1z"/>
<path d="M21088 17215 c-2 -2 -32 -5 -68 -9 -92 -8 -119 -14 -244 -51 -308
-90 -582 -323 -713 -605 -28 -62 -70 -187 -79 -235 -4 -22 -9 -49 -11 -60 -24
-112 -16 -342 17 -470 6 -22 13 -51 16 -65 10 -45 64 -174 94 -223 17 -27 30
-51 30 -53 0 -12 99 -133 150 -184 79 -78 112 -105 191 -155 22 -14 143 -79
149 -80 3 -1 22 -9 43 -18 36 -16 136 -46 202 -62 145 -35 379 -39 518 -11 22
5 36 8 92 21 48 11 146 45 195 67 24 11 56 24 70 30 36 14 181 112 209 141
l23 26 -38 42 c-22 23 -50 53 -64 68 -14 14 -72 78 -130 141 -57 63 -109 116
-115 118 -6 1 -33 -19 -60 -45 -49 -46 -136 -97 -186 -107 -13 -3 -38 -9 -55
-14 -32 -10 -258 -9 -304 1 -59 13 -171 58 -190 77 -3 3 -23 17 -45 32 -132
89 -236 268 -260 443 -10 69 -6 198 5 213 2 1 3 10 4 20 4 31 28 107 38 120 6
6 8 12 4 12 -10 0 54 102 98 156 120 148 326 235 521 220 79 -6 89 -8 128 -24
15 -7 39 -17 53 -22 42 -16 115 -71 167 -123 l49 -49 191 191 192 191 -65 65
c-36 35 -70 65 -77 65 -6 0 -13 4 -15 8 -6 15 -134 89 -193 111 -33 13 -69 27
-80 32 -23 10 -139 35 -211 45 -48 6 -241 13 -246 9z"/>
<path d="M13269 17206 c-2 -2 -58 -7 -124 -10 -66 -3 -131 -8 -145 -11 -14 -3
-41 -8 -60 -11 -73 -11 -236 -60 -257 -77 -7 -5 -13 -7 -13 -3 0 5 -151 -69
-195 -97 -30 -19 -137 -99 -167 -125 l-27 -24 149 -149 c82 -82 153 -149 157
-149 4 0 25 16 45 34 21 19 52 43 70 53 18 10 35 20 38 23 5 5 82 43 90 44 3
1 19 6 35 12 184 69 449 65 591 -10 63 -33 131 -104 161 -165 26 -56 36 -104
37 -191 l1 -45 -158 0 c-86 0 -157 -4 -157 -8 0 -4 -8 -3 -19 2 -10 6 -20 9
-22 7 -3 -3 -134 -15 -234 -21 -47 -2 -166 -19 -215 -30 -14 -3 -36 -8 -50
-10 -86 -13 -347 -109 -370 -135 -3 -3 -23 -17 -45 -30 -61 -37 -160 -142
-199 -212 -56 -102 -78 -194 -78 -333 0 -68 4 -102 16 -160 17 -80 89 -211
150 -270 84 -82 180 -137 306 -175 41 -13 82 -25 90 -28 18 -6 31 -7 145 -16
110 -9 99 -9 105 -7 3 1 39 4 80 6 197 11 403 104 538 244 24 25 51 56 59 69
9 12 18 22 22 22 3 0 6 -60 6 -132 -1 -151 1 -169 21 -161 8 3 20 0 27 -5 8
-7 95 -10 252 -9 l240 2 -1 755 c0 738 -3 842 -27 915 -3 11 -8 31 -11 45 -10
58 -79 207 -121 260 -11 14 -50 54 -87 91 -67 65 -181 131 -273 159 -22 6 -47
14 -55 17 -8 3 -22 7 -30 8 -8 1 -40 7 -70 13 -30 6 -87 13 -127 16 -40 2 -76
7 -81 10 -5 3 -11 4 -13 2z m387 -1341 c0 -38 -2 -72 -6 -75 -5 -3 -11 -32
-14 -66 -11 -114 -49 -201 -118 -275 -33 -35 -128 -105 -128 -94 0 3 -11 -2
-25 -11 -13 -8 -29 -13 -35 -9 -5 3 -10 2 -10 -3 0 -5 -21 -13 -47 -17 -27 -5
-55 -10 -63 -12 -56 -12 -249 -1 -275 15 -5 4 -12 7 -15 7 -13 1 -76 31 -87
41 -7 7 -24 21 -37 32 -25 19 -67 91 -75 127 -6 30 -4 116 3 150 12 51 87 145
116 145 6 0 10 5 10 10 0 6 8 10 19 10 10 0 24 7 31 15 7 8 20 15 29 15 9 0
34 7 56 14 22 8 59 17 81 20 22 4 51 9 64 12 14 3 66 7 115 10 50 3 91 7 92 7
1 1 73 2 160 2 l158 0 1 -70z"/>
<path d="M14832 17180 c-4 -3 -7 -338 -7 -745 1 -670 6 -854 25 -912 1 -5 3
-12 4 -18 12 -60 54 -173 90 -235 14 -25 29 -52 33 -60 10 -20 57 -74 118
-132 57 -55 200 -131 290 -154 178 -45 395 -33 548 31 20 8 39 15 42 15 14 -2
170 116 208 156 47 52 93 117 108 153 5 13 12 21 16 18 3 -4 5 -78 5 -166 -1
-157 -1 -160 21 -167 20 -7 84 -7 147 -1 14 1 35 -1 47 -5 12 -4 25 -3 28 2 3
5 16 6 28 1 12 -4 36 -4 52 -1 17 3 40 3 52 -1 13 -5 25 -4 28 2 4 5 10 7 15
4 15 -9 80 -12 80 -3 0 4 7 5 17 1 13 -5 15 -2 11 15 -4 12 -3 24 1 27 4 2 5
26 1 53 -3 27 -3 58 1 68 3 11 3 26 -2 35 -4 8 -4 21 1 29 4 7 6 20 2 28 -7
19 -7 80 0 88 3 3 2 19 -1 37 -4 18 -5 43 -1 57 4 14 5 34 3 45 -2 11 -3 54
-3 95 0 41 1 81 0 88 0 18 0 55 0 132 1 30 1 62 0 70 0 8 0 26 1 40 1 14 1 36
0 50 0 14 -1 36 0 50 0 14 0 32 0 40 -1 8 -1 40 -1 70 1 30 1 62 0 70 0 8 0
26 1 40 1 14 1 36 0 50 0 14 -1 36 0 50 0 14 0 32 0 40 -1 8 -1 40 -1 70 1 30
1 62 0 70 0 8 0 26 1 40 1 14 1 36 0 50 0 14 -1 36 0 50 0 14 0 32 0 40 -1 8
-1 40 -1 70 1 30 1 62 0 70 0 8 0 26 1 40 1 14 1 36 0 50 0 14 -1 36 0 50 0
14 0 31 0 38 -1 22 -1 101 0 138 0 19 -2 38 -5 41 -6 7 -545 7 -552 0 -2 -2
-4 -64 -4 -138 0 -74 0 -145 -1 -159 0 -14 -1 -38 0 -55 0 -16 0 -52 0 -80 -1
-27 0 -57 0 -65 1 -8 1 -26 0 -40 -1 -31 -1 -69 1 -95 2 -22 1 -266 -1 -305 0
-14 -1 -38 0 -55 4 -144 -6 -346 -19 -400 -21 -87 -78 -190 -131 -240 -61 -57
-149 -101 -220 -109 -14 -1 -30 -5 -35 -8 -14 -9 -186 -1 -214 10 -14 5 -29
11 -35 12 -23 6 -96 63 -124 97 -17 21 -44 65 -60 98 -25 55 -33 83 -61 214
-5 25 -9 337 -10 695 0 357 -3 652 -6 655 -6 7 -523 8 -532 1z"/>
<path d="M18516 17163 c-2 -3 -22 -7 -43 -10 -48 -5 -193 -55 -193 -66 0 -4
-4 -6 -9 -3 -5 3 -14 -1 -21 -9 -7 -8 -18 -15 -24 -15 -17 0 -64 -38 -141
-115 -72 -72 -83 -86 -112 -142 -9 -18 -20 -33 -23 -33 -3 0 -6 74 -6 165 1
91 -1 165 -4 166 -17 3 -487 4 -497 1 -9 -3 -11 -268 -11 -1098 l0 -1094 269
1 c148 0 270 4 270 7 1 4 2 302 4 662 2 717 2 722 63 849 32 66 112 150 173
184 69 37 184 60 277 54 119 -7 170 -26 236 -90 74 -70 128 -193 152 -347 3
-25 8 -336 9 -693 1 -356 4 -649 7 -652 4 -5 31 -6 68 -5 8 1 39 0 68 -2 28
-2 52 0 52 3 0 4 16 3 34 -1 19 -4 37 -6 39 -3 5 4 37 5 129 1 27 -1 50 1 53
4 3 3 24 2 46 -2 29 -5 42 -4 45 5 3 7 4 367 2 801 l-4 789 -26 96 c-67 246
-184 407 -368 506 -58 31 -171 70 -230 79 -47 8 -278 13 -284 7z"/>
<path d="M27397 17122 c-9 -2 -17 -9 -18 -15 -1 -17 -1 -2147 0 -2174 l1 -23
264 0 c199 0 266 3 272 13 5 7 8 479 7 1092 -1 1206 -1 1124 -11 1109 -4 -6
-16 -8 -27 -4 -11 4 -34 4 -52 -1 -18 -4 -35 -4 -37 0 -4 5 -62 6 -76 1 -3 -1
-18 -1 -35 0 -74 5 -95 5 -95 -2 0 -4 -10 -4 -22 1 -12 4 -37 5 -55 1 -17 -4
-34 -5 -37 -2 -7 6 -55 9 -79 4z"/>
<path d="M26179 13760 c-14 -8 -16 -31 -15 -160 1 -82 -2 -150 -7 -150 -4 0
-3 -8 2 -18 7 -13 6 -23 -1 -30 -7 -7 -8 -12 -2 -12 5 0 9 -84 9 -210 0 -116
-4 -210 -8 -210 -4 0 -3 -8 2 -18 7 -13 6 -23 -1 -30 -7 -7 -8 -12 -2 -12 5 0
8 -74 7 -187 -2 -104 -3 -192 -3 -198 0 -5 1 -64 3 -130 l2 -120 95 0 95 0 0
725 c1 399 -1 733 -3 742 -5 20 -29 27 -59 17 -12 -5 -25 -4 -28 1 -3 6 -15 6
-29 0 -13 -5 -27 -5 -32 0 -5 5 -16 5 -25 0z"/>
<path d="M20494 13721 c-8 -5 -10 -95 -5 -192 l1 -26 110 0 110 0 0 113 0 113
-104 -1 c-57 0 -107 -3 -112 -7z"/>
<path d="M9900 13628 c-1 -26 -1 -1226 0 -1305 l0 -53 95 2 95 1 0 38 c0 22 1
311 1 644 0 333 -1 625 -1 650 l0 45 -95 0 c-92 0 -95 -1 -95 -22z"/>
<path d="M28037 13643 c-3 -7 -2 -1346 1 -1366 1 -4 44 -6 95 -5 l92 3 0 685
0 685 -92 3 c-50 1 -93 -1 -96 -5z"/>
<path d="M12600 13580 c-36 -10 -67 -17 -69 -15 -2 3 -12 0 -22 -6 -17 -9 -19
-23 -19 -119 l0 -110 -42 -1 c-24 0 -73 0 -109 1 -76 1 -76 2 -74 -85 l1 -60
107 -1 c59 -1 110 -3 112 -6 2 -2 6 -150 8 -328 2 -179 5 -332 8 -340 39 -129
136 -203 269 -202 55 0 105 6 105 12 0 2 36 10 58 12 19 3 19 1 19 68 0 96 2
92 -29 77 -40 -20 -163 -14 -202 9 -17 10 -39 36 -50 59 -18 37 -20 65 -20
347 -1 287 0 307 16 307 10 0 36 1 58 2 22 0 50 -2 63 -5 12 -3 22 0 22 5 0 6
5 7 12 3 16 -10 80 -6 91 5 5 5 10 21 10 36 0 15 6 29 13 32 36 14 3 19 -118
19 l-133 -1 -2 140 c-2 172 -1 165 -10 164 -5 0 -37 -9 -73 -19z"/>
<path d="M19540 13583 c-30 -7 -71 -18 -91 -23 l-35 -10 1 -100 c0 -56 -3
-106 -6 -112 -5 -7 -45 -11 -113 -10 l-106 1 0 -73 0 -72 110 0 c61 1 110 -1
111 -4 1 -3 2 -147 4 -320 3 -324 4 -342 30 -404 44 -105 203 -176 324 -143
18 5 42 10 53 12 44 9 56 17 61 40 2 14 1 25 -2 25 -4 0 -6 22 -5 50 l3 50
-32 -13 c-18 -8 -62 -13 -99 -11 -95 2 -130 26 -167 114 -4 8 -7 150 -6 315
l0 300 26 1 c15 1 34 4 43 7 9 4 16 1 16 -5 0 -7 4 -7 13 0 7 6 18 7 27 2 7
-4 23 -5 34 0 12 4 29 4 40 1 10 -4 31 -5 46 -3 25 4 28 8 26 40 -1 26 3 36
16 40 47 12 7 19 -104 18 -68 -1 -130 0 -138 2 -13 2 -15 27 -14 148 0 80 -2
146 -5 148 -3 2 -31 -3 -61 -11z"/>
<path d="M11210 13311 c-30 -9 -66 -22 -80 -30 -27 -15 -84 -73 -111 -112 -15
-22 -16 -21 -14 33 2 93 1 95 -102 94 l-88 -1 -3 -512 -2 -512 95 1 c52 0 95
3 96 7 0 3 2 139 3 301 1 162 5 300 8 306 4 6 10 25 13 43 9 51 51 125 87 156
51 43 102 62 176 64 101 3 164 -35 203 -124 35 -80 38 -110 38 -472 l1 -282
97 2 96 2 0 310 c0 293 -7 446 -19 466 -3 5 -7 17 -9 27 -12 62 -72 149 -131
190 -80 55 -245 75 -354 43z"/>
<path d="M16661 13319 c-13 -5 -35 -10 -48 -11 -13 -2 -29 -8 -35 -15 -6 -7
-16 -13 -24 -13 -18 0 -114 -97 -114 -115 0 -8 -4 -15 -8 -15 -5 0 -8 31 -7
70 1 43 -2 70 -9 73 -6 2 -49 3 -96 3 l-85 -1 -2 -512 -2 -513 95 1 c52 0 94
4 95 7 1 4 2 133 4 287 3 289 6 327 29 390 5 11 13 32 18 48 18 47 80 106 133
126 28 10 78 19 113 20 104 4 170 -46 205 -154 24 -74 26 -92 26 -422 l1 -302
95 0 c68 0 95 3 96 12 5 62 3 636 -3 682 -20 161 -79 267 -178 320 -66 35
-242 55 -299 34z"/>
<path d="M23434 13309 c-72 -23 -127 -61 -163 -116 -16 -24 -31 -40 -33 -36
-3 4 -4 37 -2 73 l2 66 -97 -1 -96 0 0 -503 c0 -277 3 -508 6 -513 3 -6 45 -9
95 -7 l89 3 1 265 c1 146 3 267 4 270 1 3 3 26 6 52 4 52 35 148 56 173 71 89
145 121 256 112 92 -7 147 -55 180 -157 22 -67 25 -116 26 -415 l1 -300 95 0
95 0 -1 355 c0 369 -4 415 -45 507 -36 80 -132 160 -215 179 -64 14 -204 10
-260 -7z"/>
<path d="M29435 13323 c-117 -23 -181 -59 -230 -126 l-30 -42 -5 70 -5 70 -90
1 c-63 0 -92 -4 -95 -13 -4 -9 -5 -942 -1 -1000 1 -17 180 -17 186 0 2 7 6
143 8 302 4 279 6 315 27 369 5 13 6 27 3 30 -4 3 -1 6 5 6 7 0 12 5 12 11 0
25 58 90 103 114 26 15 47 23 47 19 0 -3 6 -2 13 4 12 10 138 11 167 2 8 -3
23 -13 34 -22 11 -10 23 -18 28 -18 6 0 41 -56 43 -70 0 -3 3 -9 7 -15 25 -40
32 -119 34 -410 1 -170 3 -316 3 -323 1 -9 26 -12 97 -10 l95 1 -4 361 c-2
199 -7 375 -11 391 -18 77 -27 101 -56 149 -37 61 -96 108 -165 131 -48 16
-177 27 -220 18z"/>
<path d="M13955 13309 c-81 -10 -97 -14 -161 -43 -65 -30 -158 -115 -186 -171
-12 -22 -24 -42 -27 -45 -4 -3 -17 -38 -28 -79 -32 -112 -27 -285 12 -396 54
-153 186 -263 350 -292 82 -14 347 -4 378 14 6 4 25 8 72 17 26 4 30 20 29
101 -1 98 -12 115 -53 86 -27 -19 -136 -71 -161 -76 -8 -2 -30 -8 -47 -14 -87
-26 -208 6 -292 76 -36 30 -90 103 -96 131 -3 9 -9 36 -15 60 -6 24 -8 47 -6
51 3 4 165 7 361 7 l357 -1 -6 94 c-8 129 -40 243 -89 316 -27 39 -98 105
-114 105 -7 0 -13 4 -13 9 0 11 -90 39 -155 49 -28 4 -77 4 -110 1z m105 -174
c81 -27 156 -121 167 -211 5 -43 0 -50 -30 -45 -4 1 -18 3 -30 5 -12 2 -32 0
-44 -5 -13 -5 -23 -5 -23 1 0 5 -12 5 -30 0 -17 -5 -32 -5 -35 0 -3 5 -16 5
-30 0 -14 -5 -25 -6 -25 -2 0 4 -25 7 -55 7 -30 0 -55 -2 -55 -5 0 -7 -69 -4
-76 3 -4 4 -15 2 -25 -4 -13 -6 -19 -6 -19 0 0 6 -7 8 -16 4 -24 -9 -33 14
-22 61 13 61 32 97 74 138 62 63 178 85 274 53z"/>
<path d="M18188 13315 c-1 -1 -32 -6 -68 -9 -84 -8 -103 -11 -115 -18 -6 -3
-25 -9 -44 -13 -51 -11 -103 -45 -96 -63 3 -8 11 -43 17 -77 l12 -62 81 42
c128 66 230 83 334 55 73 -20 126 -80 136 -155 2 -17 4 -30 5 -30 4 0 7 -51 3
-61 -2 -7 -51 -11 -131 -12 -145 -3 -184 -6 -200 -16 -7 -4 -12 -5 -12 -2 0 7
-99 -28 -146 -52 -66 -34 -138 -115 -152 -172 -2 -8 -6 -45 -9 -82 -15 -194
122 -319 343 -312 99 2 126 8 191 41 51 25 103 72 103 93 0 5 4 10 8 10 4 0 7
-29 6 -65 l-1 -65 28 -1 c16 0 45 -1 64 -1 78 0 71 -38 69 350 -1 191 -3 347
-4 347 -1 0 -3 16 -6 35 -6 53 -36 129 -61 156 -12 13 -19 24 -16 24 3 0 -14
16 -38 34 -24 19 -45 33 -48 31 -2 -3 -9 -1 -15 4 -19 15 -89 33 -151 37 -33
3 -65 7 -72 9 -6 2 -13 2 -15 0z m245 -627 c-1 -88 -18 -131 -72 -187 -65 -68
-152 -95 -249 -77 -70 13 -125 68 -136 136 -5 27 15 84 37 108 55 60 190 99
337 98 l85 -1 -2 -77z"/>
<path d="M21750 13295 c-197 -54 -348 -221 -377 -416 -24 -168 20 -321 130
-447 28 -33 55 -61 59 -61 3 -1 30 -17 59 -36 29 -19 65 -37 81 -40 15 -4 28
-10 28 -14 0 -4 6 -8 13 -9 6 0 35 -3 62 -7 82 -11 107 -11 165 -2 68 11 69
11 105 26 134 57 229 143 287 262 35 71 62 165 52 181 -3 4 -1 8 5 8 6 0 9 6
6 13 -2 6 -6 44 -9 82 -5 72 -8 88 -24 140 -45 139 -153 253 -287 301 -95 34
-266 43 -355 19z m223 -154 c75 -36 117 -88 168 -206 11 -24 20 -84 22 -145 5
-109 -44 -240 -115 -309 -59 -58 -100 -75 -188 -75 -64 -1 -82 3 -122 26 -83
50 -144 138 -168 244 -12 51 -14 142 -6 184 3 14 8 39 12 55 11 53 66 145 110
184 78 69 196 86 287 42z"/>
<path d="M24889 13305 c-2 -2 -20 -6 -39 -9 -45 -7 -113 -31 -149 -52 l-28
-17 17 -69 c20 -76 20 -76 20 -84 0 -3 12 3 28 14 69 48 178 87 262 95 87 8
220 -40 220 -79 0 -8 4 -14 10 -14 12 0 31 -70 33 -128 l2 -47 -110 -1 c-60
-1 -135 -4 -165 -8 -58 -7 -171 -36 -180 -45 -3 -3 -21 -14 -41 -24 -52 -27
-103 -80 -130 -135 -32 -65 -33 -195 -2 -264 24 -54 97 -128 125 -128 10 0 18
-4 18 -8 0 -5 6 -9 13 -9 6 0 26 -4 42 -8 37 -10 179 -11 223 -3 58 11 140 58
176 99 l34 40 -2 -56 c-1 -30 1 -60 5 -66 4 -6 38 -12 78 -13 64 -1 72 1 76
19 3 11 3 178 1 370 -3 281 -7 359 -19 396 -42 127 -110 191 -240 225 -42 11
-269 19 -278 9z m328 -612 c-3 -59 -11 -91 -30 -129 -59 -116 -189 -171 -314
-134 -107 32 -151 162 -81 237 39 42 119 77 203 89 22 4 41 7 42 8 1 1 43 3
93 4 l90 2 -3 -77z"/>
<path d="M20519 13285 c-1 -13 -1 -986 0 -1003 1 -9 24 -12 94 -10 l92 3 3
511 2 510 -95 0 c-57 0 -95 -5 -96 -11z"/>
<path d="M30879 13283 c-65 -13 -80 -18 -157 -57 -48 -23 -153 -122 -176 -164
-34 -63 -58 -119 -61 -142 -2 -14 -8 -46 -13 -72 -49 -249 134 -525 393 -592
54 -14 199 -16 270 -3 31 5 80 32 78 43 0 5 -4 25 -7 45 -3 20 -9 47 -14 60
-5 13 -7 30 -5 36 3 9 -6 8 -33 -3 -59 -25 -82 -28 -174 -28 -98 1 -156 21
-215 75 -44 40 -91 136 -100 204 -9 70 -6 210 5 210 1 0 3 8 5 17 2 9 14 41
28 70 66 142 212 210 366 172 78 -20 86 -22 86 -24 0 -1 8 -3 18 -5 9 -2 15 1
12 5 -3 5 -1 11 5 15 6 4 8 10 5 15 -3 5 -1 11 4 15 6 3 8 11 5 19 -3 7 -1 24
5 38 9 23 1 52 -13 48 -3 -1 -21 2 -38 5 -57 13 -213 12 -279 -2z"/>
<path d="M15503 13280 c-2 -3 -9 -6 -14 -6 -5 -1 -10 -2 -11 -4 -2 -1 -10 -3
-19 -5 -44 -8 -138 -89 -176 -151 -10 -16 -11 -10 -11 36 1 110 8 101 -81 99
l-79 -2 0 -441 c0 -572 1 -536 -17 -536 -8 0 -15 -4 -15 -8 0 -5 7 -9 15 -9 8
0 15 4 15 8 0 5 37 9 81 11 l82 3 2 285 c2 300 7 343 50 434 52 109 136 162
242 154 32 -3 65 -8 74 -12 13 -6 15 4 15 69 l0 77 -28 -4 c-15 -3 -28 -2 -28
1 0 7 -90 8 -97 1z"/>
<path d="M31845 12486 c-11 -37 -12 -57 -4 -61 4 -3 4 -16 -1 -29 -5 -13 -6
-27 -3 -30 4 -3 6 -26 6 -50 l-1 -45 111 2 112 2 0 110 0 110 -108 1 c-69 0
-110 -4 -112 -10z"/>
</g>
</svg>
